<mxfile host="65bd71144e">
    <diagram name="Page-1" id="hHpF1baUSTz2clY-Ota8">
        <mxGraphModel dx="352" dy="656" grid="0" gridSize="1" guides="1" tooltips="1" connect="1" arrows="1" fold="1" page="1" pageScale="1" pageWidth="1100" pageHeight="850" background="#FFFFFF" math="0" shadow="0">
            <root>
                <mxCell id="0"/>
                <mxCell id="1" parent="0"/>
                <mxCell id="58" style="edgeStyle=orthogonalEdgeStyle;html=1;exitX=0;exitY=0.25;exitDx=0;exitDy=0;entryX=0.5;entryY=0;entryDx=0;entryDy=0;strokeColor=#000000;" parent="1" source="AFJ6fUOBSR2v7E0Lf3oa-3" target="11" edge="1">
                    <mxGeometry relative="1" as="geometry"/>
                </mxCell>
                <mxCell id="59" style="edgeStyle=orthogonalEdgeStyle;html=1;exitX=1;exitY=0.25;exitDx=0;exitDy=0;strokeColor=#000000;" parent="1" source="AFJ6fUOBSR2v7E0Lf3oa-3" target="53" edge="1">
                    <mxGeometry relative="1" as="geometry"/>
                </mxCell>
                <mxCell id="60" style="edgeStyle=orthogonalEdgeStyle;html=1;exitX=1;exitY=1;exitDx=0;exitDy=0;strokeColor=#000000;" parent="1" source="AFJ6fUOBSR2v7E0Lf3oa-3" target="41" edge="1">
                    <mxGeometry relative="1" as="geometry"/>
                </mxCell>
                <mxCell id="61" style="edgeStyle=orthogonalEdgeStyle;html=1;exitX=0;exitY=1;exitDx=0;exitDy=0;strokeColor=#000000;" parent="1" source="AFJ6fUOBSR2v7E0Lf3oa-3" target="27" edge="1">
                    <mxGeometry relative="1" as="geometry"/>
                </mxCell>
                <mxCell id="62" style="edgeStyle=orthogonalEdgeStyle;html=1;exitX=0.25;exitY=1;exitDx=0;exitDy=0;strokeColor=#000000;" parent="1" source="AFJ6fUOBSR2v7E0Lf3oa-3" target="47" edge="1">
                    <mxGeometry relative="1" as="geometry"/>
                </mxCell>
                <mxCell id="63" style="edgeStyle=orthogonalEdgeStyle;html=1;exitX=0.75;exitY=1;exitDx=0;exitDy=0;strokeColor=#000000;" parent="1" source="AFJ6fUOBSR2v7E0Lf3oa-3" target="35" edge="1">
                    <mxGeometry relative="1" as="geometry"/>
                </mxCell>
                <mxCell id="AFJ6fUOBSR2v7E0Lf3oa-3" value="&lt;p class=&quot;MsoNormal&quot; style=&quot;font-size: 17px;&quot;&gt;Feed Inventory Program Structure&lt;/p&gt;" style="rounded=1;whiteSpace=wrap;html=1;fillStyle=auto;strokeColor=#000000;fontColor=#000000;fillColor=#ffffff;fontSize=17;fontStyle=1" parent="1" vertex="1">
                    <mxGeometry x="375" y="30" width="350" height="60" as="geometry"/>
                </mxCell>
                <mxCell id="10" style="rounded=0;orthogonalLoop=1;jettySize=auto;html=1;exitX=0.5;exitY=1;exitDx=0;exitDy=0;fontSize=17;fontColor=#000000;startArrow=none;edgeStyle=orthogonalEdgeStyle;startFill=0;endArrow=none;endFill=0;strokeColor=#000000;" parent="1" source="15" target="12" edge="1">
                    <mxGeometry relative="1" as="geometry"/>
                </mxCell>
                <mxCell id="11" value="addItem()" style="rounded=1;whiteSpace=wrap;html=1;fillStyle=auto;strokeColor=#000000;fontColor=#000000;fillColor=#ffffff;fontSize=13;fontStyle=1" parent="1" vertex="1">
                    <mxGeometry x="155" y="200" width="110" height="40" as="geometry"/>
                </mxCell>
                <mxCell id="12" value="&lt;p class=&quot;MsoNormal&quot;&gt;&lt;/p&gt;void addItem()&lt;span&gt;&lt;br&gt;&lt;/span&gt;" style="rounded=0;whiteSpace=wrap;html=1;fillStyle=auto;strokeColor=#000000;fontSize=11;fontColor=#000000;fillColor=#ffffff;align=left;verticalAlign=top;" parent="1" vertex="1">
                    <mxGeometry x="170.5" y="320" width="79" height="49" as="geometry"/>
                </mxCell>
                <mxCell id="13" value="" style="endArrow=classic;html=1;rounded=1;strokeWidth=1;fontSize=17;fontColor=#000000;startSize=6;endSize=4;entryX=1.026;entryY=0.435;entryDx=0;entryDy=0;entryPerimeter=0;exitX=-0.109;exitY=0.496;exitDx=0;exitDy=0;exitPerimeter=0;strokeColor=#000000;" parent="1" source="15" target="15" edge="1">
                    <mxGeometry width="50" height="50" relative="1" as="geometry">
                        <mxPoint x="169.5" y="290" as="sourcePoint"/>
                        <mxPoint x="259.5" y="270" as="targetPoint"/>
                        <Array as="points">
                            <mxPoint x="189.5" y="280"/>
                            <mxPoint x="196.5" y="290"/>
                            <mxPoint x="219.5" y="290"/>
                            <mxPoint x="229.5" y="280"/>
                        </Array>
                    </mxGeometry>
                </mxCell>
                <mxCell id="14" value="" style="rounded=0;orthogonalLoop=1;jettySize=auto;html=1;exitX=0.5;exitY=1;exitDx=0;exitDy=0;fontSize=17;fontColor=#000000;endArrow=none;edgeStyle=orthogonalEdgeStyle;startArrow=none;startFill=0;endFill=0;strokeColor=#000000;" parent="1" source="11" target="15" edge="1">
                    <mxGeometry relative="1" as="geometry">
                        <mxPoint x="269.5" y="240" as="sourcePoint"/>
                        <mxPoint x="278.5" y="320" as="targetPoint"/>
                    </mxGeometry>
                </mxCell>
                <mxCell id="15" value="" style="html=1;whiteSpace=wrap;aspect=fixed;shape=isoRectangle;fillStyle=auto;strokeColor=#000000;fontSize=17;fontColor=#000000;fillColor=#ffffff;" parent="1" vertex="1">
                    <mxGeometry x="199.5" y="270" width="20" height="12" as="geometry"/>
                </mxCell>
                <mxCell id="26" style="rounded=0;orthogonalLoop=1;jettySize=auto;html=1;exitX=0.5;exitY=1;exitDx=0;exitDy=0;fontSize=17;fontColor=#000000;startArrow=none;edgeStyle=orthogonalEdgeStyle;startFill=0;endArrow=none;endFill=0;strokeColor=#000000;" parent="1" source="31" target="28" edge="1">
                    <mxGeometry relative="1" as="geometry"/>
                </mxCell>
                <mxCell id="27" value="printInventory()" style="rounded=1;whiteSpace=wrap;html=1;fillStyle=auto;strokeColor=#000000;fontColor=#000000;fillColor=#ffffff;fontSize=13;fontStyle=1" parent="1" vertex="1">
                    <mxGeometry x="293" y="200" width="110" height="40" as="geometry"/>
                </mxCell>
                <mxCell id="28" value="&lt;p class=&quot;MsoNormal&quot;&gt;&lt;/p&gt;void printInventory()&lt;span&gt;&lt;br&gt;&lt;/span&gt;" style="rounded=0;whiteSpace=wrap;html=1;fillStyle=auto;strokeColor=#000000;fontSize=11;fontColor=#000000;fillColor=#ffffff;align=left;verticalAlign=top;" parent="1" vertex="1">
                    <mxGeometry x="309" y="320" width="79" height="54" as="geometry"/>
                </mxCell>
                <mxCell id="29" value="" style="endArrow=classic;html=1;rounded=1;strokeWidth=1;fontSize=17;fontColor=#000000;startSize=6;endSize=4;entryX=1.026;entryY=0.435;entryDx=0;entryDy=0;entryPerimeter=0;exitX=-0.109;exitY=0.496;exitDx=0;exitDy=0;exitPerimeter=0;strokeColor=#000000;" parent="1" source="31" target="31" edge="1">
                    <mxGeometry width="50" height="50" relative="1" as="geometry">
                        <mxPoint x="308" y="290" as="sourcePoint"/>
                        <mxPoint x="398" y="270" as="targetPoint"/>
                        <Array as="points">
                            <mxPoint x="328" y="280"/>
                            <mxPoint x="335" y="290"/>
                            <mxPoint x="358" y="290"/>
                            <mxPoint x="368" y="280"/>
                        </Array>
                    </mxGeometry>
                </mxCell>
                <mxCell id="30" value="" style="rounded=0;orthogonalLoop=1;jettySize=auto;html=1;exitX=0.5;exitY=1;exitDx=0;exitDy=0;fontSize=17;fontColor=#000000;endArrow=none;edgeStyle=orthogonalEdgeStyle;startArrow=none;startFill=0;endFill=0;strokeColor=#000000;" parent="1" source="27" target="31" edge="1">
                    <mxGeometry relative="1" as="geometry">
                        <mxPoint x="400" y="240" as="sourcePoint"/>
                        <mxPoint x="409" y="320" as="targetPoint"/>
                    </mxGeometry>
                </mxCell>
                <mxCell id="31" value="" style="html=1;whiteSpace=wrap;aspect=fixed;shape=isoRectangle;fillStyle=auto;strokeColor=#000000;fontSize=17;fontColor=#000000;fillColor=#ffffff;" parent="1" vertex="1">
                    <mxGeometry x="338" y="270" width="20" height="12" as="geometry"/>
                </mxCell>
                <mxCell id="34" style="rounded=0;orthogonalLoop=1;jettySize=auto;html=1;exitX=0.5;exitY=1;exitDx=0;exitDy=0;fontSize=17;fontColor=#000000;startArrow=none;edgeStyle=orthogonalEdgeStyle;startFill=0;endArrow=none;endFill=0;strokeColor=#000000;" parent="1" source="39" target="36" edge="1">
                    <mxGeometry relative="1" as="geometry"/>
                </mxCell>
                <mxCell id="35" value="searchItem()" style="rounded=1;whiteSpace=wrap;html=1;fillStyle=auto;strokeColor=#000000;fontColor=#000000;fillColor=#ffffff;fontSize=13;fontStyle=1" parent="1" vertex="1">
                    <mxGeometry x="568" y="200" width="110" height="40" as="geometry"/>
                </mxCell>
                <mxCell id="36" value="&lt;p class=&quot;MsoNormal&quot;&gt;&lt;/p&gt;void searchItem()&lt;span&gt;&lt;br&gt;&lt;/span&gt;" style="rounded=0;whiteSpace=wrap;html=1;fillStyle=auto;strokeColor=#000000;fontSize=11;fontColor=#000000;fillColor=#ffffff;align=left;verticalAlign=top;" parent="1" vertex="1">
                    <mxGeometry x="584" y="320" width="79" height="54" as="geometry"/>
                </mxCell>
                <mxCell id="37" value="" style="endArrow=classic;html=1;rounded=1;strokeWidth=1;fontSize=17;fontColor=#000000;startSize=6;endSize=4;entryX=1.026;entryY=0.435;entryDx=0;entryDy=0;entryPerimeter=0;exitX=-0.109;exitY=0.496;exitDx=0;exitDy=0;exitPerimeter=0;strokeColor=#000000;" parent="1" source="39" target="39" edge="1">
                    <mxGeometry width="50" height="50" relative="1" as="geometry">
                        <mxPoint x="583" y="290" as="sourcePoint"/>
                        <mxPoint x="673" y="270" as="targetPoint"/>
                        <Array as="points">
                            <mxPoint x="603" y="280"/>
                            <mxPoint x="610" y="290"/>
                            <mxPoint x="633" y="290"/>
                            <mxPoint x="643" y="280"/>
                        </Array>
                    </mxGeometry>
                </mxCell>
                <mxCell id="38" value="" style="rounded=0;orthogonalLoop=1;jettySize=auto;html=1;exitX=0.5;exitY=1;exitDx=0;exitDy=0;fontSize=17;fontColor=#000000;endArrow=none;edgeStyle=orthogonalEdgeStyle;startArrow=none;startFill=0;endFill=0;strokeColor=#000000;" parent="1" source="35" target="39" edge="1">
                    <mxGeometry relative="1" as="geometry">
                        <mxPoint x="675" y="240" as="sourcePoint"/>
                        <mxPoint x="684" y="320" as="targetPoint"/>
                    </mxGeometry>
                </mxCell>
                <mxCell id="39" value="" style="html=1;whiteSpace=wrap;aspect=fixed;shape=isoRectangle;fillStyle=auto;strokeColor=#000000;fontSize=17;fontColor=#000000;fillColor=#ffffff;" parent="1" vertex="1">
                    <mxGeometry x="613" y="270" width="20" height="12" as="geometry"/>
                </mxCell>
                <mxCell id="40" style="rounded=0;orthogonalLoop=1;jettySize=auto;html=1;exitX=0.5;exitY=1;exitDx=0;exitDy=0;fontSize=17;fontColor=#000000;startArrow=none;edgeStyle=orthogonalEdgeStyle;startFill=0;endArrow=none;endFill=0;strokeColor=#000000;" parent="1" source="45" target="42" edge="1">
                    <mxGeometry relative="1" as="geometry"/>
                </mxCell>
                <mxCell id="41" value="getChoice()" style="rounded=1;whiteSpace=wrap;html=1;fillStyle=auto;strokeColor=#000000;fontColor=#000000;fillColor=#ffffff;fontSize=13;fontStyle=1" parent="1" vertex="1">
                    <mxGeometry x="705" y="200" width="110" height="40" as="geometry"/>
                </mxCell>
                <mxCell id="42" value="&lt;p class=&quot;MsoNormal&quot;&gt;&lt;/p&gt;void getChoice()&lt;span&gt;&lt;br&gt;&lt;/span&gt;" style="rounded=0;whiteSpace=wrap;html=1;fillStyle=auto;strokeColor=#000000;fontSize=11;fontColor=#000000;fillColor=#ffffff;align=left;verticalAlign=top;" parent="1" vertex="1">
                    <mxGeometry x="721" y="320" width="79" height="54" as="geometry"/>
                </mxCell>
                <mxCell id="43" value="" style="endArrow=classic;html=1;rounded=1;strokeWidth=1;fontSize=17;fontColor=#000000;startSize=6;endSize=4;entryX=1.026;entryY=0.435;entryDx=0;entryDy=0;entryPerimeter=0;exitX=-0.109;exitY=0.496;exitDx=0;exitDy=0;exitPerimeter=0;strokeColor=#000000;" parent="1" source="45" target="45" edge="1">
                    <mxGeometry width="50" height="50" relative="1" as="geometry">
                        <mxPoint x="720" y="290" as="sourcePoint"/>
                        <mxPoint x="810" y="270" as="targetPoint"/>
                        <Array as="points">
                            <mxPoint x="740" y="280"/>
                            <mxPoint x="747" y="290"/>
                            <mxPoint x="770" y="290"/>
                            <mxPoint x="780" y="280"/>
                        </Array>
                    </mxGeometry>
                </mxCell>
                <mxCell id="44" value="" style="rounded=0;orthogonalLoop=1;jettySize=auto;html=1;exitX=0.5;exitY=1;exitDx=0;exitDy=0;fontSize=17;fontColor=#000000;endArrow=none;edgeStyle=orthogonalEdgeStyle;startArrow=none;startFill=0;endFill=0;strokeColor=#000000;" parent="1" source="41" target="45" edge="1">
                    <mxGeometry relative="1" as="geometry">
                        <mxPoint x="812" y="240" as="sourcePoint"/>
                        <mxPoint x="821" y="320" as="targetPoint"/>
                    </mxGeometry>
                </mxCell>
                <mxCell id="45" value="" style="html=1;whiteSpace=wrap;aspect=fixed;shape=isoRectangle;fillStyle=auto;strokeColor=#000000;fontSize=17;fontColor=#000000;fillColor=#ffffff;" parent="1" vertex="1">
                    <mxGeometry x="750" y="270" width="20" height="12" as="geometry"/>
                </mxCell>
                <mxCell id="46" style="rounded=0;orthogonalLoop=1;jettySize=auto;html=1;exitX=0.5;exitY=1;exitDx=0;exitDy=0;fontSize=17;fontColor=#000000;startArrow=none;edgeStyle=orthogonalEdgeStyle;startFill=0;endArrow=none;endFill=0;strokeColor=#000000;" parent="1" source="51" target="48" edge="1">
                    <mxGeometry relative="1" as="geometry"/>
                </mxCell>
                <mxCell id="47" value="purchaseItem()" style="rounded=1;whiteSpace=wrap;html=1;fillStyle=auto;strokeColor=#000000;fontColor=#000000;fillColor=#ffffff;fontSize=13;fontStyle=1" parent="1" vertex="1">
                    <mxGeometry x="431" y="200" width="110" height="40" as="geometry"/>
                </mxCell>
                <mxCell id="48" value="&lt;p class=&quot;MsoNormal&quot;&gt;&lt;/p&gt;void purchaseItem()&lt;span&gt;&lt;br&gt;&lt;/span&gt;" style="rounded=0;whiteSpace=wrap;html=1;fillStyle=auto;strokeColor=#000000;fontSize=11;fontColor=#000000;fillColor=#ffffff;align=left;verticalAlign=top;" parent="1" vertex="1">
                    <mxGeometry x="447" y="320" width="79" height="54" as="geometry"/>
                </mxCell>
                <mxCell id="49" value="" style="endArrow=classic;html=1;rounded=1;strokeWidth=1;fontSize=17;fontColor=#000000;startSize=6;endSize=4;entryX=1.026;entryY=0.435;entryDx=0;entryDy=0;entryPerimeter=0;exitX=-0.109;exitY=0.496;exitDx=0;exitDy=0;exitPerimeter=0;strokeColor=#000000;" parent="1" source="51" target="51" edge="1">
                    <mxGeometry width="50" height="50" relative="1" as="geometry">
                        <mxPoint x="446" y="290" as="sourcePoint"/>
                        <mxPoint x="536" y="270" as="targetPoint"/>
                        <Array as="points">
                            <mxPoint x="466" y="280"/>
                            <mxPoint x="473" y="290"/>
                            <mxPoint x="496" y="290"/>
                            <mxPoint x="506" y="280"/>
                        </Array>
                    </mxGeometry>
                </mxCell>
                <mxCell id="50" value="" style="rounded=0;orthogonalLoop=1;jettySize=auto;html=1;exitX=0.5;exitY=1;exitDx=0;exitDy=0;fontSize=17;fontColor=#000000;endArrow=none;edgeStyle=orthogonalEdgeStyle;startArrow=none;startFill=0;endFill=0;strokeColor=#000000;" parent="1" source="47" target="51" edge="1">
                    <mxGeometry relative="1" as="geometry">
                        <mxPoint x="538" y="240" as="sourcePoint"/>
                        <mxPoint x="547" y="320" as="targetPoint"/>
                    </mxGeometry>
                </mxCell>
                <mxCell id="51" value="" style="html=1;whiteSpace=wrap;aspect=fixed;shape=isoRectangle;fillStyle=auto;strokeColor=#000000;fontSize=17;fontColor=#000000;fillColor=#ffffff;" parent="1" vertex="1">
                    <mxGeometry x="476" y="270" width="20" height="12" as="geometry"/>
                </mxCell>
                <mxCell id="52" style="rounded=0;orthogonalLoop=1;jettySize=auto;html=1;exitX=0.5;exitY=1;exitDx=0;exitDy=0;fontSize=17;fontColor=#000000;startArrow=none;edgeStyle=orthogonalEdgeStyle;startFill=0;endArrow=none;endFill=0;strokeColor=#000000;" parent="1" source="57" target="54" edge="1">
                    <mxGeometry relative="1" as="geometry"/>
                </mxCell>
                <mxCell id="53" value="calcTotal()" style="rounded=1;whiteSpace=wrap;html=1;fillStyle=auto;strokeColor=#000000;fontColor=#000000;fillColor=#ffffff;fontSize=13;fontStyle=1" parent="1" vertex="1">
                    <mxGeometry x="848" y="200" width="110" height="40" as="geometry"/>
                </mxCell>
                <mxCell id="54" value="&lt;p class=&quot;MsoNormal&quot;&gt;&lt;/p&gt;void&lt;br&gt;calcTotal()&lt;span&gt;&lt;br&gt;&lt;/span&gt;" style="rounded=0;whiteSpace=wrap;html=1;fillStyle=auto;strokeColor=#000000;fontSize=11;fontColor=#000000;fillColor=#ffffff;align=left;verticalAlign=top;" parent="1" vertex="1">
                    <mxGeometry x="864" y="320" width="79" height="54" as="geometry"/>
                </mxCell>
                <mxCell id="55" value="" style="endArrow=classic;html=1;rounded=1;strokeWidth=1;fontSize=17;fontColor=#000000;startSize=6;endSize=4;entryX=1.026;entryY=0.435;entryDx=0;entryDy=0;entryPerimeter=0;exitX=-0.109;exitY=0.496;exitDx=0;exitDy=0;exitPerimeter=0;strokeColor=#000000;" parent="1" source="57" target="57" edge="1">
                    <mxGeometry width="50" height="50" relative="1" as="geometry">
                        <mxPoint x="863" y="290" as="sourcePoint"/>
                        <mxPoint x="953" y="270" as="targetPoint"/>
                        <Array as="points">
                            <mxPoint x="883" y="280"/>
                            <mxPoint x="890" y="290"/>
                            <mxPoint x="913" y="290"/>
                            <mxPoint x="923" y="280"/>
                        </Array>
                    </mxGeometry>
                </mxCell>
                <mxCell id="56" value="" style="rounded=0;orthogonalLoop=1;jettySize=auto;html=1;exitX=0.5;exitY=1;exitDx=0;exitDy=0;fontSize=17;fontColor=#000000;endArrow=none;edgeStyle=orthogonalEdgeStyle;startArrow=none;startFill=0;endFill=0;strokeColor=#000000;" parent="1" source="53" target="57" edge="1">
                    <mxGeometry relative="1" as="geometry">
                        <mxPoint x="955" y="240" as="sourcePoint"/>
                        <mxPoint x="964" y="320" as="targetPoint"/>
                    </mxGeometry>
                </mxCell>
                <mxCell id="57" value="" style="html=1;whiteSpace=wrap;aspect=fixed;shape=isoRectangle;fillStyle=auto;strokeColor=#000000;fontSize=17;fontColor=#000000;fillColor=#ffffff;" parent="1" vertex="1">
                    <mxGeometry x="893" y="270" width="20" height="12" as="geometry"/>
                </mxCell>
            </root>
        </mxGraphModel>
    </diagram>
</mxfile>